<svg width="22" height="23" viewBox="0 0 22 23" fill="none" xmlns="http://www.w3.org/2000/svg">
<path d="M20.0557 3.41199H1.94434C1.72781 3.41199 1.52016 3.498 1.36705 3.65111C1.21394 3.80421 1.12793 4.01187 1.12793 4.22839V18.7716C1.12793 18.9881 1.21394 19.1958 1.36705 19.3489C1.52016 19.502 1.72781 19.588 1.94434 19.588H20.0557C20.2722 19.588 20.4798 19.502 20.6329 19.3489C20.7861 19.1958 20.8721 18.9881 20.8721 18.7716V4.22839C20.8721 4.01187 20.7861 3.80421 20.6329 3.65111C20.4798 3.498 20.2722 3.41199 20.0557 3.41199ZM2.76074 17.9552V5.0448H19.2393V6.95476H12.43C12.2135 6.95476 12.0058 7.04078 11.8527 7.19388C11.6996 7.34699 11.6136 7.55464 11.6136 7.77117V15.2288C11.6136 15.4453 11.6996 15.653 11.8527 15.8061C12.0058 15.9592 12.2135 16.0452 12.43 16.0452H19.2393V17.9552H2.76074ZM19.2393 14.3694H13.2894V8.63054H19.2393V14.3694Z" fill="#F1FAF2"/>
<path d="M15.332 12.3164H16.5738C16.7904 12.3164 16.998 12.2304 17.1511 12.0773C17.3042 11.9242 17.3902 11.7165 17.3902 11.5C17.3902 11.2835 17.3042 11.0758 17.1511 10.9227C16.998 10.7696 16.7904 10.6836 16.5738 10.6836H15.332C15.1155 10.6836 14.9079 10.7696 14.7547 10.9227C14.6016 11.0758 14.5156 11.2835 14.5156 11.5C14.5156 11.7165 14.6016 11.9242 14.7547 12.0773C14.9079 12.2304 15.1155 12.3164 15.332 12.3164Z" fill="#F1FAF2"/>
</svg>
