<svg width="22" height="22" viewBox="0 0 22 22" fill="none" xmlns="http://www.w3.org/2000/svg">
    <path d="M20.0154 1.30176H1.98454C1.74142 1.30176 1.50826 1.39833 1.33636 1.57024C1.16445 1.74215 1.06787 1.97531 1.06787 2.21842V19.7818C1.06787 20.0249 1.16445 20.258 1.33636 20.4299C1.50826 20.6018 1.74142 20.6984 1.98454 20.6984H20.0154C20.2585 20.6984 20.4916 20.6018 20.6635 20.4299C20.8355 20.258 20.932 20.0249 20.932 19.7818V2.21842C20.932 1.97531 20.8355 1.74215 20.6635 1.57024C20.4916 1.39833 20.2585 1.30176 20.0154 1.30176ZM19.0987 18.8651H2.9012V3.13509H19.0987V18.8651Z" fill="url(#paint0_linear_4654_19441)" />
    <path d="M10.3171 16.0415C10.4031 16.139 10.5089 16.2171 10.6275 16.2707C10.746 16.3242 10.8746 16.3518 11.0046 16.3518C11.1347 16.3518 11.2632 16.3242 11.3818 16.2707C11.5003 16.2171 11.6061 16.139 11.6921 16.0415L15.6659 11.6094C15.8166 11.4412 15.9 11.2234 15.9 10.9975C15.9 10.7717 15.8166 10.5538 15.6659 10.3857L11.683 5.95816C11.5947 5.86437 11.4881 5.78964 11.3699 5.73856C11.2517 5.68748 11.1242 5.66113 10.9955 5.66113C10.8667 5.66113 10.7392 5.68748 10.621 5.73856C10.5028 5.78964 10.3962 5.86437 10.308 5.95816L6.33421 10.3948C6.18346 10.563 6.1001 10.7809 6.1001 11.0067C6.1001 11.2325 6.18346 11.4504 6.33421 11.6186L10.3171 16.0415ZM11 7.93816L13.75 10.9998L11 14.0615L8.25004 10.9998L11 7.93816Z" fill="url(#paint1_linear_4654_19441)" />
    <defs>
        <linearGradient id="paint0_linear_4654_19441" x1="18.449" y1="27.2261" x2="18.449" y2="1.30176" gradientUnits="userSpaceOnUse">
            <stop stop-color="#2D884C" />
            <stop offset="1" stop-color="#87DFA5" />
        </linearGradient>
        <linearGradient id="paint1_linear_4654_19441" x1="14.675" y1="19.9497" x2="14.675" y2="5.66113" gradientUnits="userSpaceOnUse">
            <stop stop-color="#2D884C" />
            <stop offset="1" stop-color="#87DFA5" />
        </linearGradient>
    </defs>
</svg>
