<svg width="206" height="33" viewBox="0 0 206 33" fill="none" xmlns="http://www.w3.org/2000/svg">
    <path d="M97.9034 24.2955C96.58 24.2955 95.4351 23.9877 94.4688 23.3722C93.5024 22.7505 92.7545 21.8918 92.2251 20.7962C91.7019 19.6944 91.4403 18.4264 91.4403 16.9922C91.4403 15.5642 91.7019 14.2962 92.2251 13.1882C92.7545 12.0741 93.4839 11.2031 94.4134 10.5753C95.349 9.94129 96.4292 9.62429 97.6541 9.62429C98.4235 9.62429 99.1652 9.76586 99.8793 10.049C100.593 10.326 101.233 10.7538 101.8 11.3324C102.372 11.9048 102.825 12.6281 103.157 13.5021C103.489 14.37 103.656 15.398 103.656 16.5859V17.3984H92.576V15.9489H101.975C101.975 15.0379 101.79 14.2192 101.421 13.4929C101.058 12.7604 100.55 12.1818 99.8977 11.7571C99.2514 11.3324 98.5036 11.12 97.6541 11.12C96.7554 11.12 95.9645 11.3601 95.2812 11.8402C94.598 12.3203 94.0625 12.9543 93.6747 13.7422C93.2931 14.5301 93.0992 15.3918 93.093 16.3274V17.1953C93.093 18.3217 93.2869 19.3066 93.6747 20.1499C94.0687 20.987 94.6257 21.6364 95.3459 22.098C96.0661 22.5597 96.9186 22.7905 97.9034 22.7905C98.5743 22.7905 99.1622 22.6858 99.6669 22.4766C100.178 22.2673 100.606 21.9872 100.95 21.6364C101.301 21.2794 101.566 20.8885 101.744 20.4638L103.305 20.9716C103.089 21.5687 102.735 22.1196 102.243 22.6243C101.757 23.129 101.147 23.5353 100.415 23.843C99.6884 24.1446 98.8513 24.2955 97.9034 24.2955ZM107.392 9.81818L111.048 15.8658L114.704 9.81818H116.616L112.055 16.9091L116.616 24H114.704L111.048 18.1463L107.392 24H105.49L109.996 16.9091L105.49 9.81818H107.392ZM124.498 24.2955C123.23 24.2955 122.125 23.9785 121.183 23.3445C120.247 22.7105 119.521 21.8426 119.004 20.7408C118.487 19.639 118.228 18.3833 118.228 16.9737C118.228 15.5518 118.49 14.2869 119.013 13.179C119.543 12.071 120.275 11.2031 121.211 10.5753C122.146 9.94129 123.233 9.62429 124.47 9.62429C125.418 9.62429 126.277 9.80895 127.046 10.1783C127.815 10.5414 128.449 11.0554 128.948 11.7202C129.453 12.3788 129.77 13.1482 129.899 14.0284H128.237C128.065 13.2282 127.649 12.545 126.991 11.9787C126.338 11.4062 125.507 11.12 124.498 11.12C123.593 11.12 122.793 11.3662 122.097 11.8587C121.402 12.3449 120.857 13.0251 120.463 13.8991C120.075 14.767 119.881 15.7734 119.881 16.9183C119.881 18.0694 120.072 19.0881 120.454 19.9744C120.835 20.8546 121.371 21.544 122.06 22.0426C122.756 22.5412 123.568 22.7905 124.498 22.7905C125.125 22.7905 125.698 22.6735 126.215 22.4396C126.738 22.1996 127.175 21.861 127.526 21.424C127.883 20.987 128.123 20.4669 128.246 19.8636H129.908C129.785 20.7192 129.48 21.4825 128.994 22.1534C128.514 22.8182 127.889 23.3414 127.12 23.723C126.357 24.1046 125.482 24.2955 124.498 24.2955ZM134.554 15.1364V24H132.911V5.09091H134.554V12.0433H134.702C135.034 11.3108 135.548 10.7261 136.244 10.2891C136.945 9.85204 137.832 9.63352 138.903 9.63352C139.863 9.63352 140.706 9.83049 141.433 10.2244C142.159 10.6184 142.725 11.2 143.131 11.9695C143.538 12.7389 143.741 13.6868 143.741 14.8132V24H142.088V14.9148C142.088 13.7453 141.762 12.825 141.109 12.1541C140.463 11.477 139.589 11.1385 138.487 11.1385C137.73 11.1385 137.056 11.2985 136.465 11.6186C135.874 11.9387 135.406 12.4003 135.062 13.0036C134.723 13.6006 134.554 14.3116 134.554 15.1364ZM151.51 24.3232C150.654 24.3232 149.872 24.157 149.164 23.8246C148.457 23.486 147.893 22.9998 147.475 22.3658C147.056 21.7256 146.847 20.95 146.847 20.0391C146.847 19.3374 146.979 18.7464 147.244 18.2663C147.509 17.7862 147.884 17.3923 148.37 17.0845C148.857 16.7768 149.432 16.5336 150.097 16.3551C150.762 16.1766 151.494 16.0381 152.294 15.9396C153.088 15.8411 153.759 15.755 154.307 15.6811C154.861 15.6072 155.283 15.4903 155.572 15.3303C155.861 15.1702 156.006 14.9117 156.006 14.5547V14.2223C156.006 13.2559 155.717 12.4957 155.138 11.9418C154.566 11.3816 153.741 11.1016 152.664 11.1016C151.642 11.1016 150.808 11.3262 150.162 11.7756C149.522 12.2249 149.072 12.7543 148.814 13.3636L147.253 12.8004C147.573 12.0249 148.017 11.4062 148.583 10.9446C149.149 10.4768 149.783 10.1413 150.485 9.93821C151.187 9.72893 151.897 9.62429 152.618 9.62429C153.159 9.62429 153.722 9.69508 154.307 9.83665C154.898 9.97822 155.446 10.2244 155.951 10.5753C156.455 10.92 156.865 11.4032 157.179 12.0249C157.493 12.6404 157.65 13.4221 157.65 14.37V24H156.006V21.7564H155.905C155.708 22.175 155.415 22.5812 155.027 22.9751C154.64 23.3691 154.153 23.6922 153.569 23.9446C152.984 24.197 152.298 24.3232 151.51 24.3232ZM151.731 22.8182C152.605 22.8182 153.362 22.6243 154.003 22.2365C154.643 21.8487 155.135 21.3348 155.48 20.6946C155.831 20.0483 156.006 19.3374 156.006 18.5618V16.5121C155.883 16.629 155.677 16.7337 155.388 16.826C155.104 16.9183 154.775 17.0014 154.4 17.0753C154.03 17.143 153.661 17.2015 153.292 17.2507C152.922 17.3 152.59 17.343 152.294 17.38C151.494 17.4785 150.811 17.6323 150.245 17.8416C149.678 18.0509 149.245 18.3402 148.943 18.7095C148.641 19.0727 148.49 19.5405 148.49 20.1129C148.49 20.9747 148.798 21.6425 149.414 22.1165C150.029 22.5843 150.802 22.8182 151.731 22.8182ZM163.145 15.1364V24H161.501V9.81818H163.099V12.0433H163.246C163.579 11.317 164.096 10.7353 164.798 10.2983C165.505 9.85511 166.379 9.63352 167.42 9.63352C168.374 9.63352 169.211 9.83357 169.931 10.2337C170.657 10.6276 171.221 11.2093 171.621 11.9787C172.027 12.7481 172.23 13.6929 172.23 14.8132V24H170.587V14.9148C170.587 13.7514 170.26 12.8312 169.608 12.1541C168.962 11.477 168.094 11.1385 167.004 11.1385C166.259 11.1385 165.598 11.2985 165.019 11.6186C164.441 11.9387 163.982 12.4003 163.643 13.0036C163.311 13.6006 163.145 14.3116 163.145 15.1364ZM181.449 29.6136C180.482 29.6136 179.636 29.4875 178.909 29.2351C178.183 28.9889 177.571 28.6503 177.072 28.2195C176.574 27.7886 176.186 27.3054 175.909 26.7699L177.257 25.8835C177.46 26.2405 177.731 26.5914 178.069 26.9361C178.414 27.2808 178.86 27.567 179.408 27.7947C179.962 28.0225 180.642 28.1364 181.449 28.1364C182.704 28.1364 183.717 27.8224 184.486 27.1946C185.262 26.5668 185.65 25.5911 185.65 24.2678V21.0732H185.502C185.311 21.504 185.037 21.9349 184.68 22.3658C184.323 22.7905 183.855 23.1444 183.277 23.4276C182.704 23.7107 181.993 23.8523 181.144 23.8523C180.011 23.8523 179.005 23.5722 178.125 23.0121C177.251 22.4519 176.561 21.6518 176.056 20.6115C175.558 19.5651 175.309 18.3187 175.309 16.8722C175.309 15.438 175.552 14.1761 176.038 13.0866C176.53 11.9972 177.217 11.1477 178.097 10.5384C178.977 9.92898 180.002 9.62429 181.172 9.62429C182.039 9.62429 182.76 9.77817 183.332 10.0859C183.905 10.3875 184.363 10.763 184.708 11.2124C185.059 11.6617 185.333 12.0987 185.53 12.5234H185.696V9.81818H187.302V24.3693C187.302 25.5696 187.047 26.5575 186.536 27.3331C186.025 28.1087 185.329 28.6811 184.449 29.0504C183.569 29.4259 182.569 29.6136 181.449 29.6136ZM181.338 22.3473C182.249 22.3473 183.027 22.1288 183.674 21.6918C184.32 21.2486 184.815 20.6146 185.16 19.7898C185.505 18.965 185.677 17.9832 185.677 16.8445C185.677 15.7365 185.508 14.7547 185.169 13.8991C184.831 13.0374 184.338 12.3603 183.692 11.8679C183.052 11.3693 182.267 11.12 181.338 11.12C180.39 11.12 179.59 11.3755 178.937 11.8864C178.285 12.3973 177.792 13.0866 177.46 13.9545C177.128 14.8163 176.961 15.7796 176.961 16.8445C176.961 17.9278 177.131 18.8849 177.469 19.7159C177.808 20.5407 178.303 21.187 178.956 21.6548C179.608 22.1165 180.402 22.3473 181.338 22.3473ZM196.867 24.2955C195.544 24.2955 194.399 23.9877 193.432 23.3722C192.466 22.7505 191.718 21.8918 191.189 20.7962C190.665 19.6944 190.404 18.4264 190.404 16.9922C190.404 15.5642 190.665 14.2962 191.189 13.1882C191.718 12.0741 192.447 11.2031 193.377 10.5753C194.312 9.94129 195.393 9.62429 196.618 9.62429C197.387 9.62429 198.129 9.76586 198.843 10.049C199.557 10.326 200.197 10.7538 200.763 11.3324C201.336 11.9048 201.788 12.6281 202.12 13.5021C202.453 14.37 202.619 15.398 202.619 16.5859V17.3984H191.54V15.9489H200.939C200.939 15.0379 200.754 14.2192 200.385 13.4929C200.022 12.7604 199.514 12.1818 198.861 11.7571C198.215 11.3324 197.467 11.12 196.618 11.12C195.719 11.12 194.928 11.3601 194.245 11.8402C193.562 12.3203 193.026 12.9543 192.638 13.7422C192.257 14.5301 192.063 15.3918 192.057 16.3274V17.1953C192.057 18.3217 192.25 19.3066 192.638 20.1499C193.032 20.987 193.589 21.6364 194.309 22.098C195.03 22.5597 195.882 22.7905 196.867 22.7905C197.538 22.7905 198.126 22.6858 198.63 22.4766C199.141 22.2673 199.569 21.9872 199.914 21.6364C200.265 21.2794 200.529 20.8885 200.708 20.4638L202.268 20.9716C202.053 21.5687 201.699 22.1196 201.206 22.6243C200.72 23.129 200.111 23.5353 199.378 23.843C198.652 24.1446 197.815 24.2955 196.867 24.2955Z" fill="#F1FAF2" />
    <path d="M44.469 9.16246C48.4185 6.6902 52.7279 7.90119 55.1475 10.7822C57.6857 13.8031 58.0293 18.2755 55.9574 21.6593C54.7405 23.6441 53.0449 24.936 50.8831 25.4977C48.7253 26.0595 46.6759 25.6923 44.737 24.5753C44.6224 24.7742 44.6695 24.9513 44.6695 25.1174C44.6674 26.7612 44.6715 28.4028 44.6756 30.0466C44.6776 31.3756 43.8902 32.3768 42.7633 32.4752C41.5729 32.5779 40.5809 31.6358 40.5053 30.3242C40.4909 30.0641 40.5012 29.7996 40.5012 29.5373C40.5012 23.1763 40.5012 16.8153 40.4971 10.4521C40.4971 10.1002 40.5114 9.75047 40.6259 9.42039C40.9041 8.61817 41.4481 8.11759 42.2315 7.96895C42.9964 7.82468 43.6489 8.09573 44.1663 8.7209C44.2727 8.85206 44.3606 9.00289 44.469 9.16246ZM44.6817 16.7672C44.559 18.8154 46.1768 21.3248 48.9278 21.3445C51.2676 21.362 53.1656 19.316 53.1758 16.8088C53.1861 14.2731 51.286 12.2293 48.9196 12.2358C46.275 12.2446 44.5815 14.6688 44.6817 16.7672Z" fill="#F1FAF2" />
    <path d="M32.1811 9.01598C32.3161 8.90887 32.3181 8.77553 32.3652 8.66623C32.7845 7.70443 33.6905 7.20167 34.6621 7.39403C35.5865 7.57546 36.2717 8.40829 36.3433 9.44004C36.3515 9.56245 36.3474 9.68486 36.3474 9.80728C36.3474 14.1244 36.3474 18.4394 36.3494 22.7566C36.3494 23.1085 36.331 23.4583 36.2083 23.7862C35.877 24.6649 35.2593 25.1655 34.3839 25.2223C33.5269 25.2769 32.8724 24.8594 32.4409 24.0616C32.3693 23.9282 32.3161 23.7818 32.2547 23.6441C32.1075 23.6091 32.04 23.725 31.9541 23.7905C27.1538 27.4323 20.5393 24.866 18.9951 18.6624C17.817 13.9299 20.343 8.98319 24.6463 7.57765C27.1681 6.75356 29.555 7.15577 31.7659 8.70339C31.9009 8.79739 32.0318 8.90231 32.1811 9.01598ZM22.8709 16.3082C22.8791 16.7279 22.9139 17.1432 23.0121 17.5519C23.7729 20.7215 27.2458 22.068 29.6245 20.116C31.7455 18.376 31.9664 14.9704 30.0786 12.9484C29.0927 11.8926 27.886 11.4292 26.5034 11.6653C24.362 12.0347 22.8791 13.9583 22.8709 16.3082Z" fill="#F1FAF2" />
    <path d="M67.2048 12.7908C67.7652 12.0717 68.3093 11.3787 68.8513 10.6836C69.4792 9.87702 70.0948 9.06168 70.735 8.26601C71.3036 7.55777 72.0215 7.26486 72.8867 7.50531C74.2427 7.88347 74.8604 9.52946 74.122 10.806C73.9768 11.0574 73.7866 11.2782 73.6086 11.5077C72.4592 12.9876 71.3077 14.4631 70.1582 15.9429C69.8208 16.3779 69.8883 16.2948 70.1787 16.6665C71.4222 18.2665 72.6699 19.8622 73.9134 21.4623C74.9074 22.7411 74.4268 24.5729 72.9685 25.0691C72.1585 25.3445 71.2975 25.0647 70.7207 24.3237C69.7062 23.0209 68.6959 21.7137 67.6834 20.4087C67.5893 20.2885 67.4973 20.1639 67.3991 20.048C67.1844 19.7945 67.1742 19.7879 66.9594 20.0612C66.0452 21.2263 65.137 22.3979 64.2289 23.5674C64.0305 23.8231 63.8403 24.0854 63.6378 24.339C62.8709 25.3052 61.5844 25.4494 60.6967 24.6712C59.7825 23.869 59.6638 22.4875 60.4349 21.4907C61.6969 19.8622 62.967 18.2403 64.231 16.614C64.4785 16.2948 64.4785 16.2905 64.2289 15.9713C63.0058 14.3997 61.7828 12.828 60.5535 11.2607C60.0647 10.6377 59.8009 9.96009 59.9952 9.13381C60.3879 7.45722 62.2736 6.86047 63.4476 8.0496C63.5785 8.18076 63.689 8.33377 63.8056 8.48023C64.8936 9.87702 65.9797 11.276 67.0678 12.6728C67.0923 12.6968 67.121 12.7143 67.2048 12.7908Z" fill="#8DBC1A" />
    <path d="M8.95444 6.85842C11.1736 6.85404 13.1105 7.66283 14.7876 9.19734C15.7366 10.0651 15.843 11.4729 15.0556 12.4172C14.3683 13.2435 13.2516 13.4118 12.3844 12.8128C12.2065 12.6904 12.049 12.5352 11.8833 12.3909C9.74393 10.5417 6.40396 11.0925 4.88431 13.5429C3.19694 16.2644 4.58979 19.9957 7.61887 20.822C9.20397 21.2548 10.6704 20.9488 11.9488 19.8274C12.6094 19.2481 13.3293 19.0405 14.1393 19.3596C15.4667 19.8799 15.9105 21.6526 15.0187 22.8243C14.8633 23.0276 14.6792 23.2024 14.4849 23.362C12.5153 24.984 10.2941 25.6966 7.8234 25.3577C4.60411 24.9162 2.21725 23.1347 0.820313 19.9935C-1.22498 15.3878 0.583059 9.42904 5.92332 7.40271C6.94188 7.01799 7.87044 6.85842 8.95444 6.85842Z" fill="#F1FAF2" />
    <path d="M78.1771 6.39305H77.498V5.9668H79.3449V6.39305H78.6659V8.2314H78.175V6.39305H78.1771Z" fill="#F1FAF2" />
    <path d="M81.54 8.23358L81.538 6.87395L80.9142 7.99313H80.6933L80.0715 6.90237V8.23358H79.6113V5.9668H80.0163L80.8099 7.37452L81.5912 5.9668H81.9941L82.0002 8.23358H81.54Z" fill="#F1FAF2" />
</svg>
