<svg width="16" height="16" viewBox="0 0 16 16" fill="none" xmlns="http://www.w3.org/2000/svg">
<path d="M14.5564 0.947266H1.44303C1.26622 0.947266 1.09665 1.0175 0.971629 1.14253C0.846605 1.26755 0.776367 1.43712 0.776367 1.61393V14.3873C0.776367 14.5641 0.846605 14.7336 0.971629 14.8587C1.09665 14.9837 1.26622 15.0539 1.44303 15.0539H14.5564C14.7332 15.0539 14.9027 14.9837 15.0278 14.8587C15.1528 14.7336 15.223 14.5641 15.223 14.3873V1.61393C15.223 1.43712 15.1528 1.26755 15.0278 1.14253C14.9027 1.0175 14.7332 0.947266 14.5564 0.947266ZM13.8897 13.7206H2.1097V2.2806H13.8897V13.7206Z" fill="url(#paint0_linear_2275_31843)"/>
<path d="M7.50345 11.6685C7.56601 11.7394 7.64295 11.7962 7.72916 11.8352C7.81537 11.8741 7.90887 11.8942 8.00345 11.8942C8.09803 11.8942 8.19154 11.8741 8.27774 11.8352C8.36395 11.7962 8.44089 11.7394 8.50345 11.6685L11.3935 8.44516C11.5031 8.32286 11.5637 8.1644 11.5637 8.00016C11.5637 7.83592 11.5031 7.67745 11.3935 7.55516L8.49678 4.33516C8.43258 4.26695 8.35511 4.2126 8.26912 4.17545C8.18313 4.1383 8.09045 4.11914 7.99678 4.11914C7.90312 4.11914 7.81044 4.1383 7.72445 4.17545C7.63846 4.2126 7.56099 4.26695 7.49678 4.33516L4.60678 7.56182C4.49715 7.68412 4.43652 7.84258 4.43652 8.00682C4.43652 8.17107 4.49715 8.32953 4.60678 8.45182L7.50345 11.6685ZM8.00012 5.77516L10.0001 8.00182L8.00012 10.2285L6.00012 8.00182L8.00012 5.77516Z" fill="url(#paint1_linear_2275_31843)"/>
<defs>
<linearGradient id="paint0_linear_2275_31843" x1="13.4172" y1="19.8014" x2="13.4172" y2="0.947266" gradientUnits="userSpaceOnUse">
<stop stop-color="#2D884C"/>
<stop offset="1" stop-color="#87DFA5"/>
</linearGradient>
<linearGradient id="paint1_linear_2275_31843" x1="10.6728" y1="14.5108" x2="10.6728" y2="4.11914" gradientUnits="userSpaceOnUse">
<stop stop-color="#2D884C"/>
<stop offset="1" stop-color="#87DFA5"/>
</linearGradient>
</defs>
</svg>
