<svg width="22" height="22" viewBox="0 0 22 22" fill="none" xmlns="http://www.w3.org/2000/svg">
<g clip-path="url(#clip0_1450_4499)">
<path d="M5.16652 2.26957C6.89323 1.11581 8.9233 0.5 11 0.5C13.7848 0.5 16.4555 1.60625 18.4246 3.57538C20.3938 5.54451 21.5 8.21523 21.5 11C21.5 13.0767 20.8842 15.1068 19.7304 16.8335C18.5767 18.5602 16.9368 19.906 15.0182 20.7007C13.0996 21.4955 10.9884 21.7034 8.95156 21.2982C6.91476 20.8931 5.04384 19.8931 3.57538 18.4246C2.10693 16.9562 1.1069 15.0852 0.70176 13.0484C0.296615 11.0116 0.50455 8.90045 1.29927 6.98182C2.09399 5.0632 3.4398 3.42332 5.16652 2.26957ZM16.6252 2.58137C14.9601 1.46882 13.0025 0.875 11 0.875C8.31469 0.875 5.73935 1.94174 3.84055 3.84054C1.94174 5.73935 0.875005 8.31468 0.875005 11C0.875005 13.0025 1.46883 14.9601 2.58138 16.6251C3.69392 18.2902 5.27523 19.5879 7.12534 20.3543C8.97544 21.1206 11.0112 21.3211 12.9753 20.9305C14.9394 20.5398 16.7435 19.5755 18.1595 18.1595C19.5755 16.7434 20.5398 14.9393 20.9305 12.9753C21.3211 11.0112 21.1206 8.97543 20.3543 7.12533C19.5879 5.27523 18.2902 3.69392 16.6252 2.58137Z" fill="black" stroke="#F1FAF2"/>
<rect x="9.27755" y="11.2227" width="2.75" height="2.75" transform="rotate(-45 9.27755 11.2227)" stroke="#F1FAF2" stroke-width="2.75"/>
</g>
<defs>
<clipPath id="clip0_1450_4499">
<rect width="22" height="22" fill="white"/>
</clipPath>
</defs>
</svg>
