<svg width="32" height="32" viewBox="0 0 32 32" fill="none" xmlns="http://www.w3.org/2000/svg">
<path d="M29.0841 11.2318C28.2032 8.89676 26.6918 6.85192 24.718 5.32469C22.7443 3.79746 20.3855 2.84772 17.9042 2.58111C15.4228 2.3145 12.9161 2.74148 10.663 3.81454C8.40981 4.88761 6.4985 6.5647 5.14165 8.65925L3.39602 7.46175C3.29048 7.38928 3.16691 7.34752 3.03905 7.3411C2.91119 7.33468 2.78406 7.36387 2.67179 7.42541C2.55953 7.48695 2.46655 7.57843 2.40319 7.68967C2.33982 7.80091 2.30857 7.92755 2.3129 8.0555L2.5004 13.4574C2.50401 13.5635 2.53199 13.6674 2.58218 13.7609C2.63237 13.8545 2.70343 13.9352 2.78984 13.9969C2.87625 14.0586 2.9757 14.0996 3.0805 14.1167C3.18529 14.1338 3.29261 14.1265 3.39415 14.0955L8.71165 12.4705C8.83599 12.4322 8.94701 12.3596 9.03196 12.2611C9.11692 12.1625 9.17237 12.042 9.19195 11.9134C9.21153 11.7848 9.19444 11.6532 9.14265 11.5339C9.09086 11.4145 9.00646 11.3122 8.89915 11.2386L7.10415 10.0061C8.39486 7.99303 10.2988 6.44844 12.5348 5.6005C18.2685 3.43738 24.696 6.33675 26.8629 12.0711C27.9049 14.8294 27.8084 17.8886 26.5949 20.5757C25.3813 23.2629 23.1499 25.3579 20.3916 26.3999C17.6334 27.4418 14.5742 27.3454 11.887 26.1318C9.19987 24.9182 7.10487 22.6869 6.0629 19.9286L3.8429 20.7686C4.78614 23.2647 6.44833 25.425 8.6193 26.9764C10.7903 28.5278 13.3725 29.4006 16.0395 29.4845C18.7065 29.5684 21.3385 28.8596 23.6027 27.4477C25.8668 26.0358 27.6615 23.9842 28.7598 21.5524C29.4936 19.939 29.9001 18.1961 29.9558 16.4246C30.0114 14.653 29.7152 12.888 29.0841 11.2318Z" fill="url(#paint0_linear_2275_30925)"/>
<path d="M18.0495 17.468V9.38867H15.6745V16.5149L11.8613 20.5012L13.5776 22.143L18.0495 17.468Z" fill="url(#paint1_linear_2275_30925)"/>
<defs>
<linearGradient id="paint0_linear_2275_30925" x1="26.5061" y1="38.5734" x2="26.5061" y2="2.50391" gradientUnits="userSpaceOnUse">
<stop stop-color="#2D884C"/>
<stop offset="1" stop-color="#87DFA5"/>
</linearGradient>
<linearGradient id="paint1_linear_2275_30925" x1="17.2759" y1="26.4354" x2="17.2759" y2="9.38867" gradientUnits="userSpaceOnUse">
<stop stop-color="#2D884C"/>
<stop offset="1" stop-color="#87DFA5"/>
</linearGradient>
</defs>
</svg>
