<svg width="22" height="23" viewBox="0 0 22 23" fill="none" xmlns="http://www.w3.org/2000/svg">
<path d="M16.8863 2.91486H15.5844V2.09845H13.9516V2.91486H8.02703V2.09845H6.39422V2.91486H5.11289C4.69813 2.91577 4.30064 3.08102 4.00748 3.37442C3.71432 3.66782 3.5494 4.06545 3.54883 4.48021V19.5133C3.5494 19.928 3.71432 20.3256 4.00748 20.619C4.30064 20.9124 4.69813 21.0777 5.11289 21.0786H16.8863C17.3014 21.0782 17.6993 20.9131 17.9928 20.6196C18.2864 20.3262 18.4515 19.9283 18.4521 19.5133V4.48021C18.4515 4.06515 18.2864 3.66726 17.9928 3.37381C17.6993 3.08036 17.3014 2.91531 16.8863 2.91486ZM16.8176 19.4458H5.18164V4.54767H6.39422V5.53595H8.02703V4.54767H13.9516V5.53595H15.5844V4.54767H16.8176V19.4458Z" fill="#F1FAF2"/>
<path d="M15.6207 7.87946H6.37988V9.51227H15.6207V7.87946Z" fill="#F1FAF2"/>
<path d="M15.6207 11.451H6.37988V13.0838H15.6207V11.451Z" fill="#F1FAF2"/>
</svg>
