<svg width="22" height="23" viewBox="0 0 22 23" fill="none" xmlns="http://www.w3.org/2000/svg">
<path d="M21.2014 11.1275C21.164 11.0544 20.2659 9.32279 18.5867 7.57611C17.5903 6.5397 16.5216 5.71169 15.4109 5.114C13.9959 4.35345 12.5118 3.96759 11.0001 3.96759C9.48851 3.96759 8.00437 4.35431 6.58941 5.114C5.47867 5.71169 4.41003 6.5397 3.41359 7.57611C1.73437 9.3215 0.835461 11.0544 0.798938 11.1275C0.739818 11.2428 0.708984 11.3705 0.708984 11.5C0.708984 11.6296 0.739818 11.7573 0.798938 11.8726C0.836321 11.9456 1.73437 13.6772 3.41359 15.4239C4.41003 16.4603 5.47867 17.2883 6.58941 17.886C8.00437 18.6466 9.48851 19.0324 11.0001 19.0324C12.5118 19.0324 13.9959 18.6457 15.4109 17.886C16.5216 17.2883 17.5903 16.4603 18.5867 15.4239C20.2659 13.6785 21.1648 11.9456 21.2014 11.8726C21.2605 11.7573 21.2913 11.6296 21.2913 11.5C21.2913 11.3705 21.2605 11.2428 21.2014 11.1275ZM11.0001 14.8348C9.12499 14.8348 7.5996 13.3391 7.5996 11.5C7.5996 9.66095 9.12499 8.16521 11.0001 8.16521C12.8753 8.16521 14.4007 9.66095 14.4007 11.5C14.4007 13.3391 12.8753 14.8348 11.0001 14.8348Z" fill="#F1FAF2"/>
</svg>
