<svg width="16" height="16" viewBox="0 0 16 16" fill="none" xmlns="http://www.w3.org/2000/svg">
<path d="M14.5564 0.946777H1.44303C1.26622 0.946777 1.09665 1.01702 0.971629 1.14204C0.846605 1.26706 0.776367 1.43663 0.776367 1.61344V14.3868C0.776367 14.5636 0.846605 14.7332 0.971629 14.8582C1.09665 14.9832 1.26622 15.0534 1.44303 15.0534H14.5564C14.7332 15.0534 14.9027 14.9832 15.0278 14.8582C15.1528 14.7332 15.223 14.5636 15.223 14.3868V1.61344C15.223 1.43663 15.1528 1.26706 15.0278 1.14204C14.9027 1.01702 14.7332 0.946777 14.5564 0.946777ZM13.8897 13.7201H2.1097V2.28011H13.8897V13.7201Z" fill="url(#paint0_linear_1_598)"/>
<path d="M7.50345 11.6665C7.56601 11.7375 7.64295 11.7943 7.72916 11.8332C7.81537 11.8721 7.90887 11.8922 8.00345 11.8922C8.09803 11.8922 8.19154 11.8721 8.27774 11.8332C8.36395 11.7943 8.44089 11.7375 8.50345 11.6665L11.3935 8.4432C11.5031 8.32091 11.5637 8.16245 11.5637 7.99821C11.5637 7.83396 11.5031 7.6755 11.3935 7.55321L8.49678 4.3332C8.43258 4.265 8.35511 4.21065 8.26912 4.1735C8.18313 4.13635 8.09045 4.11719 7.99678 4.11719C7.90312 4.11719 7.81044 4.13635 7.72445 4.1735C7.63846 4.21065 7.56099 4.265 7.49678 4.3332L4.60678 7.55987C4.49715 7.68217 4.43652 7.84063 4.43652 8.00487C4.43652 8.16911 4.49715 8.32758 4.60678 8.44987L7.50345 11.6665ZM8.00012 5.7732L10.0001 7.99987L8.00012 10.2265L6.00012 7.99987L8.00012 5.7732Z" fill="url(#paint1_linear_1_598)"/>
<defs>
<linearGradient id="paint0_linear_1_598" x1="13.4172" y1="21.6999" x2="13.4172" y2="0.946777" gradientUnits="userSpaceOnUse">
<stop stop-color="#B60A2D"/>
<stop offset="1" stop-color="#F66C59"/>
</linearGradient>
<linearGradient id="paint1_linear_1_598" x1="10.6728" y1="15.5555" x2="10.6728" y2="4.11719" gradientUnits="userSpaceOnUse">
<stop stop-color="#B60A2D"/>
<stop offset="1" stop-color="#F66C59"/>
</linearGradient>
</defs>
</svg>
