<svg width="33" height="33" viewBox="0 0 33 33" fill="none" xmlns="http://www.w3.org/2000/svg">
<circle cx="16.75" cy="16.25" r="15.8631" fill="#171C1F" stroke="#97D10A" stroke-width="0.77381"/>
<path d="M16.7682 13.5828C17.2151 13.0359 17.6489 12.5089 18.0811 11.9802C18.5818 11.3667 19.0727 10.7466 19.5832 10.1415C20.0366 9.6028 20.6091 9.38003 21.2989 9.5629C22.3802 9.85051 22.8728 11.1024 22.284 12.0733C22.1682 12.2645 22.0166 12.4324 21.8747 12.6069C20.9581 13.7325 20.0399 14.8547 19.1233 15.9802C18.8542 16.311 18.908 16.2478 19.1396 16.5305C20.1312 17.7474 21.1261 18.961 22.1177 20.178C22.9103 21.1506 22.527 22.5437 21.3642 22.9211C20.7183 23.1306 20.0317 22.9178 19.5718 22.3542C18.7628 21.3634 17.9572 20.3692 17.1499 19.3767C17.0748 19.2852 17.0014 19.1905 16.9232 19.1024C16.7519 18.9095 16.7438 18.9045 16.5725 19.1123C15.8435 19.9984 15.1194 20.8895 14.3952 21.779C14.237 21.9735 14.0853 22.173 13.9239 22.3658C13.3123 23.1007 12.2864 23.2104 11.5786 22.6186C10.8496 22.0084 10.755 20.9577 11.3699 20.1996C12.3761 18.961 13.3889 17.7275 14.3969 16.4906C14.5942 16.2478 14.5942 16.2445 14.3952 16.0018C13.4199 14.8064 12.4446 13.6111 11.4644 12.4191C11.0747 11.9453 10.8643 11.4299 11.0192 10.8015C11.3323 9.52633 12.8361 9.07246 13.7722 9.97687C13.8766 10.0766 13.9647 10.193 14.0576 10.3044C14.9253 11.3667 15.7913 12.4307 16.659 13.4931C16.6785 13.5113 16.7014 13.5246 16.7682 13.5828Z" fill="#8DBC1A"/>
</svg>
