<svg width="16" height="16" viewBox="0 0 16 16" fill="none" xmlns="http://www.w3.org/2000/svg">
<path d="M13.8151 2.48193H1.91905C1.77683 2.48193 1.64044 2.53843 1.53987 2.63899C1.43931 2.73956 1.38281 2.87595 1.38281 3.01817V12.5706C1.38281 12.7128 1.43931 12.8492 1.53987 12.9498C1.64044 13.0503 1.77683 13.1068 1.91905 13.1068H13.8151C13.9573 13.1068 14.0937 13.0503 14.1943 12.9498C14.2949 12.8492 14.3514 12.7128 14.3514 12.5706V3.01817C14.3514 2.87595 14.2949 2.73956 14.1943 2.63899C14.0937 2.53843 13.9573 2.48193 13.8151 2.48193V2.48193ZM2.45529 12.0344V3.55441H13.2789V4.80894H8.80636C8.66414 4.80894 8.52774 4.86543 8.42718 4.966C8.32661 5.06656 8.27012 5.20296 8.27012 5.34518V10.2436C8.27012 10.3858 8.32661 10.5222 8.42718 10.6228C8.52774 10.7233 8.66414 10.7798 8.80636 10.7798H13.2789V12.0344H2.45529ZM13.2789 9.67913H9.37082V5.90964H13.2789V9.67913Z" fill="#151517"/>
<path d="M10.712 8.33078H11.5277C11.6699 8.33078 11.8063 8.27429 11.9069 8.17372C12.0074 8.07316 12.0639 7.93676 12.0639 7.79454C12.0639 7.65232 12.0074 7.51593 11.9069 7.41536C11.8063 7.3148 11.6699 7.2583 11.5277 7.2583H10.712C10.5698 7.2583 10.4334 7.3148 10.3328 7.41536C10.2323 7.51593 10.1758 7.65232 10.1758 7.79454C10.1758 7.93676 10.2323 8.07316 10.3328 8.17372C10.4334 8.27429 10.5698 8.33078 10.712 8.33078V8.33078Z" fill="#151517"/>
</svg>
