<svg width="24" height="25" viewBox="0 0 24 25" fill="none" xmlns="http://www.w3.org/2000/svg">
    <path d="M21.8789 3.67578H2.12109C1.88489 3.67578 1.65835 3.76961 1.49133 3.93664C1.3243 4.10366 1.23047 4.3302 1.23047 4.56641V20.4317C1.23047 20.6679 1.3243 20.8945 1.49133 21.0615C1.65835 21.2285 1.88489 21.3223 2.12109 21.3223H21.8789C22.1151 21.3223 22.3416 21.2285 22.5087 21.0615C22.6757 20.8945 22.7695 20.6679 22.7695 20.4317V4.56641C22.7695 4.3302 22.6757 4.10366 22.5087 3.93664C22.3416 3.76961 22.1151 3.67578 21.8789 3.67578ZM3.01172 19.5411V5.45703H20.9883V7.54063H13.56C13.3238 7.54063 13.0973 7.63446 12.9302 7.80148C12.7632 7.96851 12.6694 8.19504 12.6694 8.43125V16.5669C12.6694 16.8031 12.7632 17.0296 12.9302 17.1966C13.0973 17.3637 13.3238 17.4575 13.56 17.4575H20.9883V19.5411H3.01172ZM20.9883 15.6294H14.4975V9.36875H20.9883V15.6294Z" fill="#151517" />
    <path d="M16.7259 13.3906H18.0806C18.3168 13.3906 18.5433 13.2968 18.7103 13.1298C18.8774 12.9627 18.9712 12.7362 18.9712 12.5C18.9712 12.2638 18.8774 12.0373 18.7103 11.8702C18.5433 11.7032 18.3168 11.6094 18.0806 11.6094H16.7259C16.4897 11.6094 16.2631 11.7032 16.0961 11.8702C15.9291 12.0373 15.8353 12.2638 15.8353 12.5C15.8353 12.7362 15.9291 12.9627 16.0961 13.1298C16.2631 13.2968 16.4897 13.3906 16.7259 13.3906Z" fill="#F1FAF2" />
</svg>
