<svg width="16" height="16" viewBox="0 0 16 16" fill="none" xmlns="http://www.w3.org/2000/svg">
<path d="M14.5564 0.859375H1.44303C1.26622 0.859375 1.09665 0.929613 0.971629 1.05464C0.846605 1.17966 0.776367 1.34923 0.776367 1.52604V14.4727C0.776367 14.6495 0.846605 14.8191 0.971629 14.9441C1.09665 15.0691 1.26622 15.1394 1.44303 15.1394H14.5564C14.7332 15.1394 14.9027 15.0691 15.0278 14.9441C15.1528 14.8191 15.223 14.6495 15.223 14.4727V1.52604C15.223 1.34923 15.1528 1.17966 15.0278 1.05464C14.9027 0.929613 14.7332 0.859375 14.5564 0.859375ZM13.8897 13.806H2.1097V2.19271H13.8897V13.806Z" fill="#E8A23A"/>
<path d="M11.7 6.99669L10.8 6.01336L8.60337 8.02003V3.69336H7.27004V7.97669L5.21004 6.01336L4.29004 6.97669L7.93004 10.4434L11.7 6.99669Z" fill="#E8A23A"/>
<path d="M10.6571 11.2598H5.34375V12.5931H10.6571V11.2598Z" fill="#E8A23A"/>
</svg>
